<mxfile host="app.diagrams.net" modified="2023-11-18T10:02:57.366Z" agent="Mozilla/5.0 (Windows NT 10.0; Win64; x64; rv:109.0) Gecko/20100101 Firefox/119.0" etag="lS3OHt9qvPk68gdQZDRo" version="22.1.3" type="device">
  <diagram name="Strona-1" id="ipMm3sfd6zLh6d_h2q_W">
    <mxGraphModel dx="971" dy="539" grid="1" gridSize="10" guides="1" tooltips="1" connect="1" arrows="1" fold="1" page="1" pageScale="1" pageWidth="827" pageHeight="1169" math="0" shadow="0">
      <root>
        <mxCell id="0" />
        <mxCell id="1" parent="0" />
        <mxCell id="SUFIGGEpoUx3KAkcFmeZ-1" value="&lt;div&gt;ComputerFile&lt;/div&gt;&lt;div&gt;&lt;br&gt;&lt;/div&gt;" style="swimlane;fontStyle=1;align=center;verticalAlign=top;childLayout=stackLayout;horizontal=1;startSize=26;horizontalStack=0;resizeParent=1;resizeParentMax=0;resizeLast=0;collapsible=1;marginBottom=0;whiteSpace=wrap;html=1;" vertex="1" parent="1">
          <mxGeometry x="160" y="120" width="190" height="170" as="geometry" />
        </mxCell>
        <mxCell id="SUFIGGEpoUx3KAkcFmeZ-2" value="&lt;div&gt;-name: string&lt;/div&gt;&lt;div&gt;-extension: string&lt;/div&gt;&lt;div&gt;-size: int&lt;/div&gt;&lt;div&gt;-dateOfLastModification: string&lt;br&gt;&lt;/div&gt;&lt;div&gt;&lt;br&gt;&lt;/div&gt;" style="text;strokeColor=none;fillColor=none;align=left;verticalAlign=top;spacingLeft=4;spacingRight=4;overflow=hidden;rotatable=0;points=[[0,0.5],[1,0.5]];portConstraint=eastwest;whiteSpace=wrap;html=1;" vertex="1" parent="SUFIGGEpoUx3KAkcFmeZ-1">
          <mxGeometry y="26" width="190" height="74" as="geometry" />
        </mxCell>
        <mxCell id="SUFIGGEpoUx3KAkcFmeZ-3" value="" style="line;strokeWidth=1;fillColor=none;align=left;verticalAlign=middle;spacingTop=-1;spacingLeft=3;spacingRight=3;rotatable=0;labelPosition=right;points=[];portConstraint=eastwest;strokeColor=inherit;" vertex="1" parent="SUFIGGEpoUx3KAkcFmeZ-1">
          <mxGeometry y="100" width="190" height="8" as="geometry" />
        </mxCell>
        <mxCell id="SUFIGGEpoUx3KAkcFmeZ-4" value="&lt;div&gt;+setName()&lt;/div&gt;&lt;div&gt;+deleteFile()&lt;/div&gt;&lt;div&gt;+setExtension()&lt;/div&gt;&lt;div&gt;&lt;br&gt;&lt;/div&gt;&lt;div&gt;&lt;br&gt;&lt;/div&gt;" style="text;strokeColor=none;fillColor=none;align=left;verticalAlign=top;spacingLeft=4;spacingRight=4;overflow=hidden;rotatable=0;points=[[0,0.5],[1,0.5]];portConstraint=eastwest;whiteSpace=wrap;html=1;" vertex="1" parent="SUFIGGEpoUx3KAkcFmeZ-1">
          <mxGeometry y="108" width="190" height="62" as="geometry" />
        </mxCell>
        <mxCell id="SUFIGGEpoUx3KAkcFmeZ-9" value="&lt;div&gt;BankAccount&lt;/div&gt;&lt;div&gt;&lt;br&gt;&lt;/div&gt;" style="swimlane;fontStyle=1;align=center;verticalAlign=top;childLayout=stackLayout;horizontal=1;startSize=26;horizontalStack=0;resizeParent=1;resizeParentMax=0;resizeLast=0;collapsible=1;marginBottom=0;whiteSpace=wrap;html=1;" vertex="1" parent="1">
          <mxGeometry x="430" y="110" width="160" height="170" as="geometry" />
        </mxCell>
        <mxCell id="SUFIGGEpoUx3KAkcFmeZ-10" value="&lt;div&gt;-accountNumber: string&lt;/div&gt;&lt;div&gt;-accountBalance: double&lt;br&gt;&lt;/div&gt;&lt;div&gt;-isActive: bool&lt;/div&gt;&lt;div&gt;-&lt;br&gt;&lt;/div&gt;" style="text;strokeColor=none;fillColor=none;align=left;verticalAlign=top;spacingLeft=4;spacingRight=4;overflow=hidden;rotatable=0;points=[[0,0.5],[1,0.5]];portConstraint=eastwest;whiteSpace=wrap;html=1;" vertex="1" parent="SUFIGGEpoUx3KAkcFmeZ-9">
          <mxGeometry y="26" width="160" height="64" as="geometry" />
        </mxCell>
        <mxCell id="SUFIGGEpoUx3KAkcFmeZ-11" value="" style="line;strokeWidth=1;fillColor=none;align=left;verticalAlign=middle;spacingTop=-1;spacingLeft=3;spacingRight=3;rotatable=0;labelPosition=right;points=[];portConstraint=eastwest;strokeColor=inherit;" vertex="1" parent="SUFIGGEpoUx3KAkcFmeZ-9">
          <mxGeometry y="90" width="160" height="8" as="geometry" />
        </mxCell>
        <mxCell id="SUFIGGEpoUx3KAkcFmeZ-12" value="&lt;div&gt;+withdraw(float)&lt;/div&gt;&lt;div&gt;+blockAccount()&lt;/div&gt;&lt;div&gt;+deleteAccount()&lt;br&gt;&lt;/div&gt;&lt;div&gt;+transfer(float)&lt;/div&gt;&lt;div&gt;&lt;br&gt;&lt;/div&gt;" style="text;strokeColor=none;fillColor=none;align=left;verticalAlign=top;spacingLeft=4;spacingRight=4;overflow=hidden;rotatable=0;points=[[0,0.5],[1,0.5]];portConstraint=eastwest;whiteSpace=wrap;html=1;" vertex="1" parent="SUFIGGEpoUx3KAkcFmeZ-9">
          <mxGeometry y="98" width="160" height="72" as="geometry" />
        </mxCell>
        <mxCell id="SUFIGGEpoUx3KAkcFmeZ-13" value="Car" style="swimlane;fontStyle=1;align=center;verticalAlign=top;childLayout=stackLayout;horizontal=1;startSize=26;horizontalStack=0;resizeParent=1;resizeParentMax=0;resizeLast=0;collapsible=1;marginBottom=0;whiteSpace=wrap;html=1;" vertex="1" parent="1">
          <mxGeometry x="160" y="330" width="160" height="230" as="geometry" />
        </mxCell>
        <mxCell id="SUFIGGEpoUx3KAkcFmeZ-14" value="&lt;div&gt;-model: string&lt;/div&gt;&lt;div&gt;-name: string&lt;/div&gt;&lt;div&gt;-yearOfProduction: int&lt;/div&gt;&lt;div&gt;-mileage: float&lt;/div&gt;&lt;div&gt;-price: int&lt;/div&gt;&lt;div&gt;&lt;br&gt;&lt;/div&gt;" style="text;strokeColor=none;fillColor=none;align=left;verticalAlign=top;spacingLeft=4;spacingRight=4;overflow=hidden;rotatable=0;points=[[0,0.5],[1,0.5]];portConstraint=eastwest;whiteSpace=wrap;html=1;" vertex="1" parent="SUFIGGEpoUx3KAkcFmeZ-13">
          <mxGeometry y="26" width="160" height="84" as="geometry" />
        </mxCell>
        <mxCell id="SUFIGGEpoUx3KAkcFmeZ-15" value="" style="line;strokeWidth=1;fillColor=none;align=left;verticalAlign=middle;spacingTop=-1;spacingLeft=3;spacingRight=3;rotatable=0;labelPosition=right;points=[];portConstraint=eastwest;strokeColor=inherit;" vertex="1" parent="SUFIGGEpoUx3KAkcFmeZ-13">
          <mxGeometry y="110" width="160" height="8" as="geometry" />
        </mxCell>
        <mxCell id="SUFIGGEpoUx3KAkcFmeZ-16" value="&lt;div&gt;+startEngine()&lt;/div&gt;&lt;div&gt;+stopEngine()&lt;/div&gt;&lt;div&gt;+driveForward()&lt;/div&gt;&lt;div&gt;+checkFuelAmount()&lt;br&gt;&lt;/div&gt;&lt;div&gt;-setName()&lt;/div&gt;&lt;div&gt;-setPrice()&lt;/div&gt;&lt;div&gt;&lt;br&gt;&lt;/div&gt;" style="text;strokeColor=none;fillColor=none;align=left;verticalAlign=top;spacingLeft=4;spacingRight=4;overflow=hidden;rotatable=0;points=[[0,0.5],[1,0.5]];portConstraint=eastwest;whiteSpace=wrap;html=1;" vertex="1" parent="SUFIGGEpoUx3KAkcFmeZ-13">
          <mxGeometry y="118" width="160" height="112" as="geometry" />
        </mxCell>
      </root>
    </mxGraphModel>
  </diagram>
</mxfile>
